# xmcd
#
# Track frame offsets:
#   150
#   17087
#   32692
#   48571
#   66164
#   81622
#   99258
#   113399
#   134263
#   150839
#   167489
#   183848
#   204825
#   221363
#   239615
#   255084
#   275755
#
# Disc length: 3844 seconds
#
# Revision: 0
# Processed by: cddbd v1.5.2PL0 Copyright (c) Steve Scherf et al.
# Submitted via: GXTranscoder 2.0.1939
#
DISCID=d60f0211
DTITLE=Nevio - Nevio
DYEAR=2007
DGENRE=Pop
TTITLE0=Amore per sempre
TTITLE1=Lo dico a te
TTITLE2=Bellissima
TTITLE3=Run away
TTITLE4=Halt mich
TTITLE5=Vorbei
TTITLE6=Grappolo di vita
TTITLE7=Stella
TTITLE8=Sano egoismo
TTITLE9=Vedrai
TTITLE10=Alleluia girl
TTITLE11=Dolphnis make me cry
TTITLE12=Run away - Radio Edit
TTITLE13=Firenze
TTITLE14=Giulia
TTITLE15=Qualcosa di grande
TTITLE16=La mia distanza
EXTD=
EXTT0=
EXTT1=
EXTT2=
EXTT3=
EXTT4=
EXTT5=
EXTT6=
EXTT7=
EXTT8=
EXTT9=
EXTT10=
EXTT11=
EXTT12=
EXTT13=
EXTT14=
EXTT15=
EXTT16=
PLAYORDER=
